{"title":"Joker 2012 Hindi DvDrip 720p x264 AC3 2ch ...Hon3y","uid":7692848,"size":956551292,"categoryP":"video","categoryS":"hd___movies","magnet":"?xt=urn:btih:d377e38c01cf9559beef60fb0121a0329f47a9cf&amp;dn=Joker+2012+Hindi+DvDrip+720p+x264+AC3+2ch+...Hon3y&amp;tr=udp%3A%2F%2Ftracker.openbittorrent.com%3A80&amp;tr=udp%3A%2F%2Fopen.demonii.com%3A1337&amp;tr=udp%3A%2F%2Ftracker.coppersurfer.tk%3A6969&amp;tr=udp%3A%2F%2Fexodus.desync.com%3A6969","seeders":0,"leechers":2,"uploader":"honey8ee","files":-1,"time":1349283329,"description":" &lt;a href=&quot;http://en.wikipedia.org/wiki/Joker_(2012_film)&quot; rel=&quot;nofollow&quot; target=&quot;_NEW&quot;&gt;http://en.wikipedia.org/wiki/Joker_(2012_film)&lt;/a&gt;\n &lt;a href=&quot;\nhttp://www.imdb.com/title/tt1918886/&quot; rel=&quot;nofollow&quot; target=&quot;_NEW&quot;&gt;\nhttp://www.imdb.com/title/tt1918886/&lt;/a&gt;\n\n\nFormat                                   : Matroska\nFormat version                           : Version 2\nFile size                                : 899 MiB\nDuration                                 : 1h 43mn\nOverall bit rate                         : 1 214 Kbps\n\nVideo\nID                                       : 1\nFormat                                   : AVC\nFormat/Info                              : Advanced Video Codec\nFormat profile                           : &lt;a class=&quot;__cf_email__&quot; href=&quot;/cdn-cgi/l/email-protection&quot; data-cfemail=&quot;bcf4d5dbd4fcf088928d&quot;&gt;[email&amp;#160;protected]&lt;/a&gt;&lt;script cf-hash='f9e31' type=&quot;text/javascript&quot;&gt;\n/* &lt;![CDATA[ */!function(){try{var t=&quot;currentScript&quot;in document?document.currentScript:function(){for(var t=document.getElementsByTagName(&quot;script&quot;),e=t.length;e--;)if(t[e].getAttribute(&quot;cf-hash&quot;))return t[e]}();if(t&amp;&amp;t.previousSibling){var e,r,n,i,c=t.previousSibling,a=c.getAttribute(&quot;data-cfemail&quot;);if(a){for(e=&quot;&quot;,r=parseInt(a.substr(0,2),16),n=2;a.length-n;n+=2)i=parseInt(a.substr(n,2),16)^r,e+=String.fromCharCode(i);e=document.createTextNode(e),c.parentNode.replaceChild(e,c)}}}catch(u){}}();/* ]]&gt; */&lt;/script&gt;\nFormat settings, CABAC                   : Yes\nFormat settings, ReFrames                : 4 frames\nMuxing mode                              : Header stripping\nCodec ID                                 : V_MPEG4/ISO/AVC\nDuration                                 : 1h 43mn\nBit rate                                 : 1 150 Kbps\nWidth                                    : 1 280 pixels\nHeight                                   : 544 pixels\nDisplay aspect ratio                     : 2.35:1\nOriginal display aspect ratio            : 2.35:1\nFrame rate                               : 23.976 fps\nColor space                              : YUV\nChroma subsampling                       : 4:2:0\nBit depth                                : 8 bits\nScan type                                : Progressive\nBits/(Pixel*Frame)                       : 0.069\nStream size                              : 834 MiB (93%)\n\n\nAudio\nID                                       : 2\nFormat                                   : AC-3\nBit rate mode                            : Constant\nBit rate                                 : 64.0 Kbps\nChannel(s)                               : 2 channels\nChannel positions                        : Front: L R\nSampling rate                            : 48.0 KHz\nBit depth                                : 16 bits\nCompression mode                         : Lossy\nStream size                              : 47.4 MiB (5%)\nDefault                                  : Yes\nForced                                   : No\n\n &lt;a href=&quot;\nhttp://www.shotpix.com/images/35520568172883850820.png&quot; rel=&quot;nofollow&quot; target=&quot;_NEW&quot;&gt;\nhttp://www.shotpix.com/images/35520568172883850820.png&lt;/a&gt; &lt;a href=&quot;\nhttp://www.shotpix.com/images/01589216998237162791.png&quot; rel=&quot;nofollow&quot; target=&quot;_NEW&quot;&gt;\nhttp://www.shotpix.com/images/01589216998237162791.png&lt;/a&gt; &lt;a href=&quot;\nhttp://www.shotpix.com/images/20873694913528969336.png&quot; rel=&quot;nofollow&quot; target=&quot;_NEW&quot;&gt;\nhttp://www.shotpix.com/images/20873694913528969336.png&lt;/a&gt; &lt;a href=&quot;\nhttp://www.shotpix.com/images/02193048338975071152.png&quot; rel=&quot;nofollow&quot; target=&quot;_NEW&quot;&gt;\nhttp://www.shotpix.com/images/02193048338975071152.png&lt;/a&gt; &lt;a href=&quot;\nhttp://www.shotpix.com/images/89132388140598503375.png&quot; rel=&quot;nofollow&quot; target=&quot;_NEW&quot;&gt;\nhttp://www.shotpix.com/images/89132388140598503375.png&lt;/a&gt; &lt;a href=&quot;\nhttp://www.shotpix.com/images/56015102766575961827.png&quot; rel=&quot;nofollow&quot; target=&quot;_NEW&quot;&gt;\nhttp://www.shotpix.com/images/56015102766575961827.png&lt;/a&gt; &lt;a href=&quot;\nhttp://www.shotpix.com/images/16576518732351747888.png&quot; rel=&quot;nofollow&quot; target=&quot;_NEW&quot;&gt;\nhttp://www.shotpix.com/images/16576518732351747888.png&lt;/a&gt;\n\n                                    \n                                Check The Sample First","torrent":{"xt":"urn:btih:d377e38c01cf9559beef60fb0121a0329f47a9cf","amp;dn":"Joker+2012+Hindi+DvDrip+720p+x264+AC3+2ch+...Hon3y","amp;tr":["udp%3A%2F%2Ftracker.openbittorrent.com%3A80","udp%3A%2F%2Fopen.demonii.com%3A1337","udp%3A%2F%2Ftracker.coppersurfer.tk%3A6969","udp%3A%2F%2Fexodus.desync.com%3A6969"],"infoHash":"d377e38c01cf9559beef60fb0121a0329f47a9cf","infoHashBuffer":{"type":"Buffer","data":[211,119,227,140,1,207,149,89,190,239,96,251,1,33,160,50,159,71,169,207]},"announce":[],"urlList":[]}}